<svg fill="none" height="144" viewBox="0 0 150 144" width="150" xmlns="http://www.w3.org/2000/svg"><path d="m136.331 130.878s-54.5748-11.952-56.3998-12.522l-.1187-.024.0062-.012c-11.3875-3.618-20.05-12.822-22.6687-24.204l-1.2375 5.124c-1.5937 8.382-9.2125 14.76-18.4125 14.76-10.3562 0-18.75-8.058-18.75-18 0-8.112 5.6313-14.892 13.3188-17.142l27.6812-6.24c.175-.348.3125-.714.5-1.05-1.2937.27-2.625.432-4 .432-8.15 0-18.1-5.922-18.65-17.076-9.5-8.58-17.675-9.924-25.1-9.924v-9c7.95 0 17.25 1.314 27.55 9.09 1.2875-2.154 3-4.026 5.075-5.502-7.5938-8.532-7.625-20.694-7.625-27.348l9.375-.24v.24c0 8.958.7187 18.72 8.1312 23.88.4188-.024.8188-.12 1.2438-.12 10.3563 0 18.75 8.058 18.75 18 0 1.32-.1687 2.598-.45 3.84.3563-.18.7375-.312 1.0937-.48l6.5063-26.598c2.35-7.368 9.4063-12.762 17.85-12.762 10.356 0 18.75 8.058 18.75 18 0 8.382-5.994 15.36-14.069 17.364l-6.6748 1.494c12.5878 2.664 22.5998 11.88 25.8438 23.796z" fill="#fbc02d"/><path d="m112.5 125.64 18.369-17.634 2.475 10.35-10.056 9.654c-3.3-.72-6.988-1.536-10.788-2.37zm-14.6312-3.234 29.6372-28.452-2.475-10.35-37.9185 36.402c3 .678 6.6875 1.5 10.7563 2.4zm-24.175-6.792 46.7002-44.832c-1.575-2.658-3.488-5.082-5.738-7.218l-48.506 46.566c2.225 2.154 4.7813 3.972 7.5438 5.484zm-18.6875-79.494c-7.4125-5.16-8.1313-14.916-8.1313-23.88v-.24l-9.375.24c0 6.66.0312 18.816 7.625 27.348 2.8-1.998 6.1875-3.228 9.8813-3.468zm-17.5063 17.88c0-3.258.975-6.276 2.55-8.91-10.3-7.776-19.6-9.09-27.55-9.09v9c7.425 0 15.6 1.344 25.1 9.924-.0125-.318-.1-.594-.1-.924z" fill="#000" opacity=".5"/><path d="m55.9125 99.228c-1.5937 8.394-9.2125 14.772-18.4125 14.772-10.3562 0-18.75-8.058-18.75-18 0-8.112 5.6313-14.892 13.3188-17.142l30.4312-6.858zm62.8375-63.228c0-9.942-8.394-18-18.75-18-8.4437 0-15.5 5.394-17.85 12.762l-7.15 29.238 29.681-6.636c8.075-2.004 14.069-8.982 14.069-17.364z" fill="#fff" opacity=".4"/></svg>